<?xml version="1.0" encoding="UTF-8"?>
<!DOCTYPE svg PUBLIC "-//W3C//DTD SVG 1.1//EN" "http://www.w3.org/Graphics/SVG/1.1/DTD/svg11.dtd">
<!-- Creator: CorelDRAW X7 -->
<svg xmlns="http://www.w3.org/2000/svg" xml:space="preserve" width="210mm" height="297mm" version="1.1" style="shape-rendering:geometricPrecision; text-rendering:geometricPrecision; image-rendering:optimizeQuality; fill-rule:evenodd; clip-rule:evenodd"
viewBox="0 0 21000 29700"
 xmlns:xlink="http://www.w3.org/1999/xlink">
 <defs>
  <style type="text/css">
   <![CDATA[
    .fil0 {fill:#666666}
   ]]>
  </style>
 </defs>
 <g id="Слой_x0020_1">
  <metadata id="CorelCorpID_0Corel-Layer"/>
  <path class="fil0" d="M10706 14721c-15,7 -31,12 -48,14 17,-11 30,-28 37,-47 -17,9 -35,16 -54,20 -15,-16 -37,-27 -62,-27 -46,0 -84,38 -84,85 0,7 0,14 2,20 -70,-4 -133,-38 -174,-89 -8,12 -12,27 -12,43 0,29 15,55 38,71 -14,-1 -27,-5 -39,-11 0,0 0,1 0,1 0,41 30,76 68,84 -7,1 -14,3 -22,3 -5,0 -11,-1 -16,-2 11,34 42,58 79,59 -29,23 -65,37 -105,37 -7,0 -14,-1 -20,-2 37,25 82,39 130,39 155,0 240,-130 240,-243 0,-3 0,-7 0,-11 16,-12 31,-27 42,-44l0 0z"/>
 </g>
</svg>
